<svg width="21" height="20" viewBox="0 0 21 20" fill="none" xmlns="http://www.w3.org/2000/svg">
<path d="M0.829346 9.99863C0.830509 14.918 4.40775 19.1067 9.26635 19.8776V12.8886H6.72935V9.99863H9.26935V7.79863C9.1558 6.75617 9.51187 5.71722 10.241 4.96356C10.9701 4.2099 11.9967 3.81964 13.0423 3.89863C13.7929 3.91075 14.5415 3.97759 15.2823 4.09863V6.55763H14.0183C13.5832 6.50063 13.1457 6.64435 12.8291 6.94829C12.5125 7.25224 12.3511 7.68351 12.3903 8.12063V9.99863H15.1613L14.7183 12.8896H12.3903V19.8776C17.6448 19.0472 21.3294 14.2484 20.7749 8.9577C20.2203 3.667 15.6206 -0.263445 10.3082 0.0138048C4.99571 0.291054 0.83019 4.67893 0.829346 9.99863Z" fill="white"/>
</svg>
