<svg width="19" height="19" viewBox="0 0 19 19" fill="none" xmlns="http://www.w3.org/2000/svg">
<path d="M9.83008 18.036C7.37008 18.036 7.08008 18.023 6.12008 17.981C5.37145 17.9564 4.63251 17.8042 3.93508 17.531C2.72839 17.0614 1.77422 16.1069 1.30508 14.9C1.04238 14.2 0.900696 13.4605 0.886078 12.713C0.830078 11.755 0.830078 11.441 0.830078 9C0.830078 6.533 0.843078 6.245 0.886078 5.29C0.901016 4.54352 1.0427 3.80501 1.30508 3.106C1.77371 1.89753 2.72943 0.942172 3.93808 0.474C4.63672 0.210202 5.37542 0.0681443 6.12208 0.054C7.07708 0 7.39108 0 9.83008 0C12.3101 0 12.5951 0.013 13.5401 0.054C14.2887 0.0682666 15.0293 0.21031 15.7301 0.474C16.9384 0.942703 17.8939 1.89788 18.3631 3.106C18.6302 3.81519 18.7726 4.56525 18.7841 5.323C18.8401 6.281 18.8401 6.594 18.8401 9.034C18.8401 11.474 18.8261 11.794 18.7841 12.741C18.7692 13.4892 18.6272 14.2294 18.3641 14.93C17.8937 16.1377 16.9381 17.0926 15.7301 17.562C15.0303 17.8242 14.2912 17.9659 13.5441 17.981C12.5891 18.036 12.2761 18.036 9.83008 18.036ZM9.79608 1.583C7.35008 1.583 7.09608 1.595 6.14108 1.638C5.57106 1.64555 5.00656 1.75074 4.47208 1.949C3.68283 2.25101 3.05831 2.87299 2.75308 3.661C2.55329 4.2013 2.44809 4.77198 2.44208 5.348C2.38908 6.317 2.38908 6.571 2.38908 9C2.38908 11.4 2.39808 11.691 2.44208 12.654C2.45103 13.2242 2.55617 13.7888 2.75308 14.324C3.05875 15.1115 3.68317 15.733 4.47208 16.035C5.00619 16.2346 5.57093 16.3398 6.14108 16.346C7.10908 16.402 7.36408 16.402 9.79608 16.402C12.2491 16.402 12.5031 16.39 13.4501 16.346C14.0205 16.3391 14.5854 16.2339 15.1201 16.035C15.9045 15.7304 16.525 15.1103 16.8301 14.326C17.0295 13.7852 17.1347 13.2143 17.1411 12.638H17.1521C17.1951 11.682 17.1951 11.427 17.1951 8.984C17.1951 6.541 17.1841 6.284 17.1411 5.329C17.1321 4.75945 17.027 4.19551 16.8301 3.661C16.5257 2.87557 15.9051 2.25429 15.1201 1.949C14.5855 1.74974 14.0205 1.64452 13.4501 1.638C12.4831 1.583 12.2301 1.583 9.79608 1.583ZM9.83008 13.619C7.96007 13.6202 6.2735 12.4947 5.55694 10.7675C4.84038 9.04018 5.23498 7.05133 6.55671 5.72846C7.87843 4.40559 9.86694 4.00927 11.5948 4.72433C13.3227 5.43939 14.4497 7.12499 14.4501 8.995C14.4473 11.5461 12.3811 13.614 9.83008 13.619ZM9.83008 5.993C8.17322 5.993 6.83008 7.33615 6.83008 8.993C6.83008 10.6499 8.17322 11.993 9.83008 11.993C11.4869 11.993 12.8301 10.6499 12.8301 8.993C12.8262 7.33774 11.4853 5.99685 9.83008 5.993ZM14.6301 5.28C14.0355 5.27779 13.555 4.79459 13.5561 4.20001C13.5572 3.60543 14.0395 3.12401 14.6341 3.12401C15.2287 3.12401 15.711 3.60542 15.7121 4.2C15.7123 4.48686 15.5984 4.76202 15.3953 4.96468C15.1923 5.16733 14.9169 5.2808 14.6301 5.28Z" fill="white"/>
</svg>
