<svg width="19" height="18" viewBox="0 0 19 18" fill="none" xmlns="http://www.w3.org/2000/svg">
<path d="M10.83 18H6.83005V6H10.83V8C11.6827 6.91525 12.9757 6.26857 14.355 6.237C16.8356 6.25077 18.8373 8.26938 18.8301 10.75V18H14.83V11.25C14.6701 10.1326 13.7118 9.30358 12.583 9.306C12.0893 9.32161 11.6233 9.53778 11.2925 9.90462C10.9617 10.2715 10.7947 10.7573 10.83 11.25V18ZM4.83005 18H0.830048V6H4.83005V18ZM2.83005 4C1.72548 4 0.830048 3.10457 0.830048 2C0.830048 0.89543 1.72548 0 2.83005 0C3.93462 0 4.83005 0.89543 4.83005 2C4.83005 2.53043 4.61933 3.03914 4.24426 3.41421C3.86919 3.78929 3.36048 4 2.83005 4Z" fill="white"/>
</svg>
