<svg width="22" height="17" viewBox="0 0 22 17" fill="none" xmlns="http://www.w3.org/2000/svg">
<path d="M19.2941 2.6792C20.1905 2.14329 20.8613 1.29944 21.1811 0.3052C20.3387 0.805002 19.4171 1.15708 18.4561 1.3462C17.1237 -0.063273 15.0126 -0.406274 13.3025 0.508856C11.5924 1.42399 10.7066 3.37069 11.1401 5.2612C7.6897 5.08797 4.47505 3.45812 2.29609 0.7772C1.15893 2.73862 1.74004 5.24598 3.62409 6.5072C2.9428 6.4853 2.27662 6.30084 1.68109 5.9692C1.68109 5.9872 1.68109 6.0052 1.68109 6.0232C1.68148 8.06635 3.12146 9.82628 5.12409 10.2312C4.49215 10.4031 3.82929 10.4284 3.18609 10.3052C3.74929 12.0525 5.35964 13.2495 7.19509 13.2852C5.67492 14.4783 3.79756 15.1254 1.86509 15.1222C1.52256 15.1227 1.1803 15.103 0.840088 15.0632C2.80248 16.3242 5.08646 16.9936 7.41909 16.9912C10.6643 17.0135 13.7831 15.7341 16.0778 13.4392C18.3725 11.1443 19.6516 8.02545 19.6291 4.7802C19.6291 4.5942 19.6248 4.4092 19.6161 4.2252C20.4565 3.6178 21.1819 2.86535 21.7581 2.0032C20.9751 2.35026 20.1446 2.57812 19.2941 2.6792Z" fill="white"/>
</svg>
